<?xml version="1.0" encoding="UTF-8" standalone="no"?>
<!DOCTYPE svg PUBLIC "-//W3C//DTD SVG 1.1//EN" "http://www.w3.org/Graphics/SVG/1.1/DTD/svg11.dtd">
<svg version="1.1" xmlns="http://www.w3.org/2000/svg" xmlns:xlink="http://www.w3.org/1999/xlink" preserveAspectRatio="xMidYMid meet" viewBox="0 0 640 640" width="640" height="640"><defs><path d="M557.41 476.12C557.28 516.04 524.8 548.29 484.88 548.16C408.01 547.89 249.66 547.35 172.78 547.09C132.86 546.95 100.61 514.48 100.74 474.56C101.01 396.89 101.56 236.19 101.82 158.53C101.96 118.61 134.43 86.36 174.36 86.5C251.23 86.76 409.58 87.3 486.46 87.57C526.38 87.7 558.63 120.18 558.5 160.1C558.23 237.76 557.68 398.46 557.41 476.12Z" id="b185dpZh2"></path><path d="M605.27 283.79C631.78 313.63 629.08 359.32 599.24 385.84C541.77 436.9 423.39 542.07 365.92 593.14C336.08 619.65 290.39 616.95 263.88 587.11C212.29 529.05 106.66 410.16 55.35 352.41C28.07 321.71 30.85 274.72 61.55 247.44C118.71 196.65 235.85 92.58 293.32 41.52C323.16 15 368.85 17.7 395.36 47.54C446.95 105.6 553.68 225.73 605.27 283.79Z" id="chzDaGjNm"></path><path d="M239.64 309.89C239.64 348.8 208.52 380.38 170.19 380.38C131.86 380.38 100.74 348.8 100.74 309.89C100.74 270.99 131.86 239.41 170.19 239.41C208.52 239.41 239.64 270.99 239.64 309.89Z" id="bTQ2bDVgx"></path><path d="M399.5 163C399.5 201.91 368.38 233.49 330.05 233.49C291.71 233.49 260.59 201.91 260.59 163C260.59 124.1 291.71 92.52 330.05 92.52C368.38 92.52 399.5 124.1 399.5 163Z" id="e4F2dLh70"></path><path d="M558.5 309.89C558.5 348.8 527.38 380.38 489.05 380.38C450.72 380.38 419.6 348.8 419.6 309.89C419.6 270.99 450.72 239.41 489.05 239.41C527.38 239.41 558.5 270.99 558.5 309.89Z" id="a1NYk8fAFl"></path><path d="M399.5 477.67C399.5 516.57 368.38 548.16 330.05 548.16C291.71 548.16 260.59 516.57 260.59 477.67C260.59 438.76 291.71 407.18 330.05 407.18C368.38 407.18 399.5 438.76 399.5 477.67Z" id="dERgWt1Qj"></path></defs><g><g><g><use xlink:href="#b185dpZh2" opacity="1" fill="#f6f6f6" fill-opacity="1"></use><g><use xlink:href="#b185dpZh2" opacity="1" fill-opacity="0" stroke="#000000" stroke-width="3" stroke-opacity="1"></use></g></g><g><g><use xlink:href="#chzDaGjNm" opacity="1" fill="#f6f6f6" fill-opacity="1"></use><g><use xlink:href="#chzDaGjNm" opacity="1" fill-opacity="0" stroke="#000000" stroke-width="3" stroke-opacity="1"></use></g></g><g><use xlink:href="#bTQ2bDVgx" opacity="1" fill="#00ff6c" fill-opacity="1"></use><g><use xlink:href="#bTQ2bDVgx" opacity="1" fill-opacity="0" stroke="#000000" stroke-width="3" stroke-opacity="1"></use></g></g><g><use xlink:href="#e4F2dLh70" opacity="1" fill="#0eacff" fill-opacity="1"></use><g><use xlink:href="#e4F2dLh70" opacity="1" fill-opacity="0" stroke="#000000" stroke-width="3" stroke-opacity="1"></use></g></g><g><use xlink:href="#a1NYk8fAFl" opacity="1" fill="#ebf60c" fill-opacity="1"></use><g><use xlink:href="#a1NYk8fAFl" opacity="1" fill-opacity="0" stroke="#000000" stroke-width="3" stroke-opacity="1"></use></g></g><g><use xlink:href="#dERgWt1Qj" opacity="1" fill="#fa71ff" fill-opacity="1"></use><g><use xlink:href="#dERgWt1Qj" opacity="1" fill-opacity="0" stroke="#000000" stroke-width="3" stroke-opacity="1"></use></g></g></g></g></g></svg>