<?xml version="1.0" encoding="UTF-8" standalone="no"?>
<!DOCTYPE svg PUBLIC "-//W3C//DTD SVG 1.1//EN" "http://www.w3.org/Graphics/SVG/1.1/DTD/svg11.dtd">
<svg version="1.1" xmlns="http://www.w3.org/2000/svg" xmlns:xlink="http://www.w3.org/1999/xlink" preserveAspectRatio="xMidYMid meet" viewBox="0 0 640 640" width="640" height="640"><defs><path d="M577.82 446.11C577.59 515.77 520.92 572.05 451.26 571.81C373.17 571.54 265.04 571.16 186.95 570.89C117.29 570.65 61.01 513.98 61.24 444.31C61.51 363.74 61.9 248.14 62.18 167.57C62.41 97.91 119.08 41.63 188.74 41.87C266.83 42.14 374.96 42.52 453.05 42.79C522.71 43.03 578.99 99.7 578.76 169.36C578.49 249.94 578.1 365.53 577.82 446.11Z" id="a1C7NrsSRK"></path><path d="M588.02 231.44C642.43 293.62 636.86 387.98 575.51 443.33C520.39 493.05 465.66 542.42 410.55 592.15C349.74 647.01 255.78 641.46 201.84 579.82C152.25 523.15 101.57 465.24 51.98 408.56C-2.43 346.38 3.14 252.02 64.49 196.67C119.61 146.95 174.34 97.58 229.45 47.85C290.26 -7.01 384.22 -1.46 438.16 60.18C487.75 116.85 538.43 174.76 588.02 231.44Z" id="a1AIk8eG9I"></path><path d="M237.22 309.91C237.22 354.59 202.02 390.87 158.66 390.87C115.3 390.87 80.1 354.59 80.1 309.91C80.1 265.23 115.3 228.95 158.66 228.95C202.02 228.95 237.22 265.23 237.22 309.91Z" id="aCP1eFBXZ"></path><path d="M403.76 149.14C403.76 193.83 368.55 230.1 325.2 230.1C281.84 230.1 246.63 193.83 246.63 149.14C246.63 104.46 281.84 68.18 325.2 68.18C368.55 68.18 403.76 104.46 403.76 149.14Z" id="bhqF6Ttrm"></path><path d="M569.48 315.05C569.48 359.74 534.27 396.01 490.91 396.01C447.55 396.01 412.35 359.74 412.35 315.05C412.35 270.37 447.55 234.09 490.91 234.09C534.27 234.09 569.48 270.37 569.48 315.05Z" id="a1kKs4xWU2"></path><path d="M398.56 480.09C398.56 524.77 363.36 561.05 320 561.05C276.64 561.05 241.44 524.77 241.44 480.09C241.44 435.41 276.64 399.13 320 399.13C363.36 399.13 398.56 435.41 398.56 480.09Z" id="aEsfgdjdy"></path></defs><g><g><g><use xlink:href="#a1C7NrsSRK" opacity="1" fill="#f6f6f6" fill-opacity="1"></use><g><use xlink:href="#a1C7NrsSRK" opacity="1" fill-opacity="0" stroke="#000000" stroke-width="3" stroke-opacity="1"></use></g></g><g><g><g><filter id="shadow14419336" x="5.56" y="1.07" width="629.88" height="638.86" filterUnits="userSpaceOnUse" primitiveUnits="userSpaceOnUse"><feFlood></feFlood><feComposite in2="SourceAlpha" operator="in"></feComposite><feGaussianBlur stdDeviation="1"></feGaussianBlur><feOffset dx="1" dy="1" result="afterOffset"></feOffset><feFlood flood-color="#000000" flood-opacity="0.5"></feFlood><feComposite in2="afterOffset" operator="in"></feComposite><feMorphology operator="dilate" radius="1"></feMorphology><feComposite in2="SourceAlpha" operator="out"></feComposite></filter><path d="M588.02 231.44C642.43 293.62 636.86 387.98 575.51 443.33C520.39 493.05 465.66 542.42 410.55 592.15C349.74 647.01 255.78 641.46 201.84 579.82C152.25 523.15 101.57 465.24 51.98 408.56C-2.43 346.38 3.14 252.02 64.49 196.67C119.61 146.95 174.34 97.58 229.45 47.85C290.26 -7.01 384.22 -1.46 438.16 60.18C487.75 116.85 538.43 174.76 588.02 231.44Z" id="cd0fFAmrX" fill="white" fill-opacity="1" filter="url(#shadow14419336)"></path></g><use xlink:href="#a1AIk8eG9I" opacity="1" fill="#00ffe1" fill-opacity="1"></use><g><use xlink:href="#a1AIk8eG9I" opacity="1" fill-opacity="0" stroke="#000000" stroke-width="3" stroke-opacity="1"></use></g></g><g><g><filter id="shadow8283525" x="71.1" y="219.95" width="176.12" height="180.92" filterUnits="userSpaceOnUse" primitiveUnits="userSpaceOnUse"><feFlood></feFlood><feComposite in2="SourceAlpha" operator="in"></feComposite><feGaussianBlur stdDeviation="1"></feGaussianBlur><feOffset dx="1" dy="1" result="afterOffset"></feOffset><feFlood flood-color="#000000" flood-opacity="0.5"></feFlood><feComposite in2="afterOffset" operator="in"></feComposite><feMorphology operator="dilate" radius="1"></feMorphology><feComposite in2="SourceAlpha" operator="out"></feComposite></filter><path d="M237.22 309.91C237.22 354.59 202.02 390.87 158.66 390.87C115.3 390.87 80.1 354.59 80.1 309.91C80.1 265.23 115.3 228.95 158.66 228.95C202.02 228.95 237.22 265.23 237.22 309.91Z" id="bBzgoZVAp" fill="white" fill-opacity="1" filter="url(#shadow8283525)"></path></g><use xlink:href="#aCP1eFBXZ" opacity="1" fill="#ffffff" fill-opacity="1"></use><g><use xlink:href="#aCP1eFBXZ" opacity="1" fill-opacity="0" stroke="#000000" stroke-width="3" stroke-opacity="1"></use></g></g><g><g><filter id="shadow15563336" x="237.63" y="59.18" width="176.12" height="180.92" filterUnits="userSpaceOnUse" primitiveUnits="userSpaceOnUse"><feFlood></feFlood><feComposite in2="SourceAlpha" operator="in"></feComposite><feGaussianBlur stdDeviation="1"></feGaussianBlur><feOffset dx="1" dy="1" result="afterOffset"></feOffset><feFlood flood-color="#000000" flood-opacity="0.5"></feFlood><feComposite in2="afterOffset" operator="in"></feComposite><feMorphology operator="dilate" radius="1"></feMorphology><feComposite in2="SourceAlpha" operator="out"></feComposite></filter><path d="M403.76 149.14C403.76 193.83 368.55 230.1 325.2 230.1C281.84 230.1 246.63 193.83 246.63 149.14C246.63 104.46 281.84 68.18 325.2 68.18C368.55 68.18 403.76 104.46 403.76 149.14Z" id="a35aLV3uy" fill="white" fill-opacity="1" filter="url(#shadow15563336)"></path></g><use xlink:href="#bhqF6Ttrm" opacity="1" fill="#0eacff" fill-opacity="1"></use><g><use xlink:href="#bhqF6Ttrm" opacity="1" fill-opacity="0" stroke="#000000" stroke-width="3" stroke-opacity="1"></use></g></g><g><g><filter id="shadow644665" x="403.35" y="225.09" width="176.12" height="180.92" filterUnits="userSpaceOnUse" primitiveUnits="userSpaceOnUse"><feFlood></feFlood><feComposite in2="SourceAlpha" operator="in"></feComposite><feGaussianBlur stdDeviation="1"></feGaussianBlur><feOffset dx="1" dy="1" result="afterOffset"></feOffset><feFlood flood-color="#000000" flood-opacity="0.5"></feFlood><feComposite in2="afterOffset" operator="in"></feComposite><feMorphology operator="dilate" radius="1"></feMorphology><feComposite in2="SourceAlpha" operator="out"></feComposite></filter><path d="M569.48 315.05C569.48 359.74 534.27 396.01 490.91 396.01C447.55 396.01 412.35 359.74 412.35 315.05C412.35 270.37 447.55 234.09 490.91 234.09C534.27 234.09 569.48 270.37 569.48 315.05Z" id="h3sAtbiwRv" fill="white" fill-opacity="1" filter="url(#shadow644665)"></path></g><use xlink:href="#a1kKs4xWU2" opacity="1" fill="#f6d80c" fill-opacity="1"></use><g><use xlink:href="#a1kKs4xWU2" opacity="1" fill-opacity="0" stroke="#000000" stroke-width="3" stroke-opacity="1"></use></g></g><g><g><filter id="shadow7589259" x="232.44" y="390.13" width="176.12" height="180.92" filterUnits="userSpaceOnUse" primitiveUnits="userSpaceOnUse"><feFlood></feFlood><feComposite in2="SourceAlpha" operator="in"></feComposite><feGaussianBlur stdDeviation="1"></feGaussianBlur><feOffset dx="1" dy="1" result="afterOffset"></feOffset><feFlood flood-color="#000000" flood-opacity="0.5"></feFlood><feComposite in2="afterOffset" operator="in"></feComposite><feMorphology operator="dilate" radius="1"></feMorphology><feComposite in2="SourceAlpha" operator="out"></feComposite></filter><path d="M398.56 480.09C398.56 524.77 363.36 561.05 320 561.05C276.64 561.05 241.44 524.77 241.44 480.09C241.44 435.41 276.64 399.13 320 399.13C363.36 399.13 398.56 435.41 398.56 480.09Z" id="b4Vl1pG1qL" fill="white" fill-opacity="1" filter="url(#shadow7589259)"></path></g><use xlink:href="#aEsfgdjdy" opacity="1" fill="#f200fb" fill-opacity="1"></use><g><use xlink:href="#aEsfgdjdy" opacity="1" fill-opacity="0" stroke="#000000" stroke-width="3" stroke-opacity="1"></use></g></g></g></g></g></svg>