<?xml version="1.0" encoding="UTF-8" standalone="no"?>
<!DOCTYPE svg PUBLIC "-//W3C//DTD SVG 1.1//EN" "http://www.w3.org/Graphics/SVG/1.1/DTD/svg11.dtd">
<svg version="1.1" xmlns="http://www.w3.org/2000/svg" xmlns:xlink="http://www.w3.org/1999/xlink" preserveAspectRatio="xMidYMid meet" viewBox="0 0 640 640" width="640" height="640"><defs><path d="M314.59 234.32C334.26 234.32 350.21 250.27 350.21 269.95C350.21 292.2 350.21 323.35 350.21 345.61C350.21 365.28 334.26 381.23 314.58 381.23C293.37 381.23 265.37 381.23 244.16 381.22C224.49 381.22 208.54 365.27 208.54 345.6C208.54 323.34 208.54 292.2 208.54 269.94C208.54 250.27 224.49 234.32 244.17 234.32C265.38 234.32 293.38 234.32 314.59 234.32Z" id="b1iCbs8T"></path><path d="M356.21 280.73C370.12 294.65 370.12 317.2 356.21 331.11C340.47 346.85 318.45 368.87 302.71 384.61C288.8 398.52 266.24 398.52 252.33 384.61C237.33 369.61 217.53 349.81 202.54 334.81C188.63 320.9 188.63 298.34 202.54 284.43C218.28 268.7 240.3 246.67 256.04 230.94C269.95 217.03 292.51 217.03 306.42 230.94C321.42 245.94 341.22 265.74 356.21 280.73Z" id="b1gpLglIO5"></path><path d="M257.92 307.77C257.92 319.79 248.16 329.54 236.15 329.54C224.13 329.54 214.38 319.79 214.38 307.77C214.38 295.76 224.13 286 236.15 286C248.16 286 257.92 295.76 257.92 307.77Z" id="a60SFpyHZd"></path><path d="M339.58 304.86C339.58 316.87 329.83 326.63 317.81 326.63C305.8 326.63 296.04 316.87 296.04 304.86C296.04 292.84 305.8 283.09 317.81 283.09C329.83 283.09 339.58 292.84 339.58 304.86Z" id="a6vbgZbayz"></path><path d="M278.6 373.07C266.59 372.65 257.19 362.55 257.62 350.54C258.04 338.53 268.14 329.13 280.15 329.56C292.16 329.99 301.56 340.08 301.13 352.09C300.71 364.1 290.61 373.5 278.6 373.07Z" id="g20UuU93jc"></path><path d="M278.6 277.85C266.59 277.42 257.19 267.32 257.62 255.32C258.04 243.31 268.14 233.91 280.15 234.33C292.16 234.76 301.56 244.86 301.13 256.86C300.71 268.87 290.61 278.27 278.6 277.85Z" id="a6iBBY1fqO"></path></defs><g><g><g><g><filter id="shadow12946489" x="195.54" y="221.32" width="169.67" height="174.91" filterUnits="userSpaceOnUse" primitiveUnits="userSpaceOnUse"><feFlood></feFlood><feComposite in2="SourceAlpha" operator="in"></feComposite><feGaussianBlur stdDeviation="1.41"></feGaussianBlur><feOffset dx="2" dy="2" result="afterOffset"></feOffset><feFlood flood-color="#86ff00" flood-opacity="0.5"></feFlood><feComposite in2="afterOffset" operator="in"></feComposite><feMorphology operator="dilate" radius="2"></feMorphology><feComposite in2="SourceAlpha" operator="out"></feComposite></filter><path d="M314.59 234.32C334.26 234.32 350.21 250.27 350.21 269.95C350.21 292.2 350.21 323.35 350.21 345.61C350.21 365.28 334.26 381.23 314.58 381.23C293.37 381.23 265.37 381.23 244.16 381.22C224.49 381.22 208.54 365.27 208.54 345.6C208.54 323.34 208.54 292.2 208.54 269.94C208.54 250.27 224.49 234.32 244.17 234.32C265.38 234.32 293.38 234.32 314.59 234.32Z" id="c7ITvPEpzt" fill="white" fill-opacity="1" filter="url(#shadow12946489)"></path></g><use xlink:href="#b1iCbs8T" opacity="1" fill="#ffffff" fill-opacity="1"></use><g><use xlink:href="#b1iCbs8T" opacity="1" fill-opacity="0" stroke="#000000" stroke-width="0.8" stroke-opacity="1"></use></g></g><g><g><filter id="shadow4852142" x="181.11" y="209.5" width="198.54" height="197.54" filterUnits="userSpaceOnUse" primitiveUnits="userSpaceOnUse"><feFlood></feFlood><feComposite in2="SourceAlpha" operator="in"></feComposite><feGaussianBlur stdDeviation="1"></feGaussianBlur><feOffset dx="-2" dy="1" result="afterOffset"></feOffset><feFlood flood-color="#86ff00" flood-opacity="0.5"></feFlood><feComposite in2="afterOffset" operator="in"></feComposite><feMorphology operator="dilate" radius="2"></feMorphology><feComposite in2="SourceAlpha" operator="out"></feComposite></filter><path d="M356.21 280.73C370.12 294.65 370.12 317.2 356.21 331.11C340.47 346.85 318.45 368.87 302.71 384.61C288.8 398.52 266.24 398.52 252.33 384.61C237.33 369.61 217.53 349.81 202.54 334.81C188.63 320.9 188.63 298.34 202.54 284.43C218.28 268.7 240.3 246.67 256.04 230.94C269.95 217.03 292.51 217.03 306.42 230.94C321.42 245.94 341.22 265.74 356.21 280.73Z" id="b5OQDGUh4" fill="white" fill-opacity="1" filter="url(#shadow4852142)"></path></g><use xlink:href="#b1gpLglIO5" opacity="1" fill="#ffffff" fill-opacity="1"></use><g><use xlink:href="#b1gpLglIO5" opacity="1" fill-opacity="0" stroke="#000000" stroke-width="0.8" stroke-opacity="1"></use></g></g><g><use xlink:href="#a60SFpyHZd" opacity="1" fill="#ffffff" fill-opacity="1"></use><g><use xlink:href="#a60SFpyHZd" opacity="1" fill-opacity="0" stroke="#000000" stroke-width="1" stroke-opacity="1"></use></g></g><g><use xlink:href="#a6vbgZbayz" opacity="1" fill="#f9f400" fill-opacity="1"></use><g><use xlink:href="#a6vbgZbayz" opacity="1" fill-opacity="0" stroke="#000000" stroke-width="1" stroke-opacity="1"></use></g></g><g><use xlink:href="#g20UuU93jc" opacity="1" fill="#ec7cfe" fill-opacity="1"></use><g><use xlink:href="#g20UuU93jc" opacity="1" fill-opacity="0" stroke="#000000" stroke-width="1" stroke-opacity="1"></use></g></g><g><use xlink:href="#a6iBBY1fqO" opacity="1" fill="#00fff3" fill-opacity="1"></use><g><use xlink:href="#a6iBBY1fqO" opacity="1" fill-opacity="0" stroke="#000000" stroke-width="1" stroke-opacity="1"></use></g></g></g></g></svg>