<!-- <?xml version="1.0" encoding="UTF-8" standalone="no"?>
<!DOCTYPE svg PUBLIC "-//W3C//DTD SVG 1.1//EN" "http://www.w3.org/Graphics/SVG/1.1/DTD/svg11.dtd"> -->
<svg version="1.1" xmlns="http://www.w3.org/2000/svg" xmlns:xlink="http://www.w3.org/1999/xlink" preserveAspectRatio="xMidYMid meet" viewBox="0 0 640 640" width="640" height="640"><defs><path d="M352.09 253.07C371.76 253.07 387.71 269.02 387.71 288.7C387.71 310.95 387.71 342.1 387.71 364.36C387.71 384.03 371.76 399.98 352.08 399.98C330.87 399.98 302.87 399.98 281.66 399.97C261.99 399.97 246.04 384.02 246.04 364.35C246.04 342.09 246.04 310.95 246.04 288.69C246.04 269.02 261.99 253.07 281.67 253.07C302.88 253.07 330.88 253.07 352.09 253.07Z" id="b1WqO0uV6n"></path><path d="M393.71 299.48C407.62 313.4 407.62 335.95 393.71 349.86C377.97 365.6 355.95 387.62 340.21 403.36C326.3 417.27 303.74 417.27 289.83 403.36C274.83 388.36 255.03 368.56 240.04 353.56C226.13 339.65 226.13 317.09 240.04 303.18C255.78 287.45 277.8 265.42 293.54 249.69C307.45 235.78 330.01 235.78 343.92 249.69C358.92 264.69 378.72 284.49 393.71 299.48Z" id="i2s0IAN7Xt"></path><path d="M295.42 326.52C295.42 338.54 285.66 348.29 273.65 348.29C261.63 348.29 251.88 338.54 251.88 326.52C251.88 314.51 261.63 304.75 273.65 304.75C285.66 304.75 295.42 314.51 295.42 326.52Z" id="b1gk0jbKCf"></path><path d="M377.08 323.61C377.08 335.62 367.33 345.38 355.31 345.38C343.3 345.38 333.54 335.62 333.54 323.61C333.54 311.59 343.3 301.84 355.31 301.84C367.33 301.84 377.08 311.59 377.08 323.61Z" id="a1j99iwCHT"></path><path d="M314.09 307.42C302.09 306.99 292.68 296.9 293.11 284.89C293.54 272.88 303.63 263.48 315.64 263.91C327.65 264.33 337.05 274.43 336.63 286.44C336.2 298.45 326.1 307.85 314.09 307.42Z" id="a1OgPauSc0"></path><path d="M314.11 389.14C302.1 388.71 292.7 378.62 293.12 366.61C293.55 354.6 303.65 345.2 315.66 345.63C327.66 346.05 337.07 356.15 336.64 368.16C336.21 380.16 326.12 389.57 314.11 389.14Z" id="c17NAboXl3"></path></defs><g><g><g><g><filter id="shadow6044479" x="233.04" y="240.07" width="169.67" height="174.91" filterUnits="userSpaceOnUse" primitiveUnits="userSpaceOnUse"><feFlood></feFlood><feComposite in2="SourceAlpha" operator="in"></feComposite><feGaussianBlur stdDeviation="1.41"></feGaussianBlur><feOffset dx="2" dy="2" result="afterOffset"></feOffset><feFlood flood-color="#86ff00" flood-opacity="0.5"></feFlood><feComposite in2="afterOffset" operator="in"></feComposite><feMorphology operator="dilate" radius="2"></feMorphology><feComposite in2="SourceAlpha" operator="out"></feComposite></filter><path d="M352.09 253.07C371.76 253.07 387.71 269.02 387.71 288.7C387.71 310.95 387.71 342.1 387.71 364.36C387.71 384.03 371.76 399.98 352.08 399.98C330.87 399.98 302.87 399.98 281.66 399.97C261.99 399.97 246.04 384.02 246.04 364.35C246.04 342.09 246.04 310.95 246.04 288.69C246.04 269.02 261.99 253.07 281.67 253.07C302.88 253.07 330.88 253.07 352.09 253.07Z" id="d7RSipH9D" fill="white" fill-opacity="1" filter="url(#shadow6044479)"></path></g><use xlink:href="#b1WqO0uV6n" opacity="1" fill="#ffffff" fill-opacity="1"></use></g><g><g><filter id="shadow6131325" x="218.61" y="228.25" width="198.54" height="197.54" filterUnits="userSpaceOnUse" primitiveUnits="userSpaceOnUse"><feFlood></feFlood><feComposite in2="SourceAlpha" operator="in"></feComposite><feGaussianBlur stdDeviation="1"></feGaussianBlur><feOffset dx="-2" dy="1" result="afterOffset"></feOffset><feFlood flood-color="#86ff00" flood-opacity="0.5"></feFlood><feComposite in2="afterOffset" operator="in"></feComposite><feMorphology operator="dilate" radius="2"></feMorphology><feComposite in2="SourceAlpha" operator="out"></feComposite></filter><path d="M393.71 299.48C407.62 313.4 407.62 335.95 393.71 349.86C377.97 365.6 355.95 387.62 340.21 403.36C326.3 417.27 303.74 417.27 289.83 403.36C274.83 388.36 255.03 368.56 240.04 353.56C226.13 339.65 226.13 317.09 240.04 303.18C255.78 287.45 277.8 265.42 293.54 249.69C307.45 235.78 330.01 235.78 343.92 249.69C358.92 264.69 378.72 284.49 393.71 299.48Z" id="bmrhHhwrV" fill="white" fill-opacity="1" filter="url(#shadow6131325)"></path></g><use xlink:href="#i2s0IAN7Xt" opacity="1" fill="#ffffff" fill-opacity="1"></use></g><g><use xlink:href="#b1gk0jbKCf" opacity="1" fill="#8bf623" fill-opacity="1"></use></g><g><use xlink:href="#a1j99iwCHT" opacity="1" fill="#f9f400" fill-opacity="1"></use><g><use xlink:href="#a1j99iwCHT" opacity="1" fill-opacity="0" stroke="#000000" stroke-width="0.5" stroke-opacity="1"></use></g></g><g><use xlink:href="#a1OgPauSc0" opacity="1" fill="#ec7cfe" fill-opacity="1"></use></g><g><use xlink:href="#c17NAboXl3" opacity="1" fill="#00fff3" fill-opacity="1"></use></g></g></g></svg>