<svg xmlns="http://www.w3.org/2000/svg" width="174.748" height="174.826" viewBox="0 0 174.748 174.826">
  <g id="Path_1" data-name="Path 1" transform="matrix(0.695, -0.719, 0.719, 0.695, 0.154, 90.044)" fill="#00fee4">
    <path d="M 35.87257385253906 120.9344711303711 C 31.02819061279297 120.9344711303711 26.34012413024902 119.9999237060547 21.93860626220703 118.1567764282227 C 17.68844032287598 116.3770065307617 13.89690685272217 113.8356246948242 10.66932392120361 110.6032257080078 C 4.350173950195312 104.2746047973633 0.8772905468940735 95.94117736816406 0.8904572129249573 87.13802337646484 L 0.9685738682746887 34.86570739746094 C 0.9753905534744263 30.30000686645508 1.907957196235657 25.86972427368164 3.740357160568237 21.69790649414062 C 5.511573791503906 17.66535758972168 8.044857025146484 14.04164028167725 11.26982402801514 10.92742347717285 C 14.49720764160156 7.810856819152832 18.25412368774414 5.362106800079346 22.4361743927002 3.64920711517334 C 26.76749038696289 1.875156998634338 31.36787414550781 0.972307026386261 36.1095085144043 0.9656903147697449 L 89.03777313232422 0.8919070363044739 L 89.08960723876953 0.8918736577033997 C 93.93399047851562 0.8918736577033997 98.62205505371094 1.826423645019531 103.0235748291016 3.669573783874512 C 107.2737274169922 5.449340343475342 111.0652542114258 7.990723609924316 114.292839050293 11.22312355041504 C 120.6120071411133 17.5517406463623 124.0848922729492 25.88517379760742 124.0717391967773 34.68832397460938 L 123.9936065673828 86.96065521240234 C 123.9867935180664 91.52635955810547 123.0542221069336 95.95664215087891 121.2218246459961 100.1284561157227 C 119.4506072998047 104.1610107421875 116.9173202514648 107.7847213745117 113.6923599243164 110.8989410400391 C 110.464973449707 114.015510559082 106.7080535888672 116.4642562866211 102.526008605957 118.1771545410156 C 98.19468688964844 119.9511871337891 93.59430694580078 120.8540573120117 88.85267639160156 120.8606719970703 L 35.92440795898438 120.934440612793 L 35.87257385253906 120.9344711303711 Z" stroke="none"/>
    <path d="M 89.08958435058594 1.891860961914062 L 89.03914642333984 1.891899108886719 L 36.11089324951172 1.965682983398438 C 31.49942016601562 1.972099304199219 27.02609252929688 2.849861145019531 22.81520080566406 4.574592590332031 C 18.75098419189453 6.239227294921875 15.10027313232422 8.618644714355469 11.96446990966797 11.64675903320312 C 8.833541870117188 14.67017364501953 6.374603271484375 18.18717193603516 4.655929565429688 22.10004425048828 C 2.879348754882812 26.14481353759766 1.975196838378906 30.44028472900391 1.968582153320312 34.86719512939453 L 1.890457153320312 87.13949584960938 C 1.877693176269531 95.67524719238281 5.246726989746094 103.7572326660156 11.37696075439453 109.8966293334961 C 14.51205444335938 113.0363922119141 18.19545745849609 115.5051727294922 22.32487487792969 117.2343902587891 C 26.60341644287109 119.0260467529297 31.16154479980469 119.9344863891602 35.87261962890625 119.9344863891602 L 35.92301940917969 119.9344482421875 L 88.85128784179688 119.8606643676758 C 93.46276092529297 119.854248046875 97.93608856201172 118.9764862060547 102.1469802856445 117.2517700195312 C 106.2111968994141 115.5871200561523 109.8619079589844 113.2077026367188 112.9977111816406 110.1795959472656 C 116.1286392211914 107.1561737060547 118.5875854492188 103.6391754150391 120.3062515258789 99.72630310058594 C 122.0828323364258 95.68155670166016 122.9869842529297 91.38606262207031 122.9935989379883 86.95917510986328 L 123.0717239379883 34.68684387207031 C 123.0844879150391 26.15108489990234 119.7154541015625 18.06912231445312 113.5852203369141 11.92971801757812 C 110.4501266479492 8.789939880371094 106.7667236328125 6.321174621582031 102.6373062133789 4.591957092285156 C 98.3587646484375 2.800300598144531 93.80065155029297 1.891860961914062 89.08958435058594 1.891860961914062 M 89.08958435058594 -0.1081390380859375 C 108.9966125488281 -0.1081390380859375 125.1004638671875 15.46012878417969 125.0717239379883 34.68982696533203 L 124.9935989379883 86.962158203125 C 124.9648361206055 106.2082824707031 108.7846221923828 121.8328857421875 88.85407257080078 121.8606643676758 L 35.92579650878906 121.9344482421875 C 15.99165344238281 121.9622192382812 -0.1383056640625 106.3826599121094 -0.1095428466796875 87.13652038574219 L -0.0314178466796875 34.86421203613281 C -0.002655029296875 15.61806488037109 16.17756652832031 -0.00653839111328125 36.10810852050781 -0.0343170166015625 L 89.03636169433594 -0.1081008911132812 C 89.05339050292969 -0.108123779296875 89.07256317138672 -0.1081390380859375 89.08958435058594 -0.1081390380859375 Z" stroke="none" fill="#707070"/>
  </g>
</svg>
